<svg width="928" height="1215" viewBox="-77.33333333333333,-622.5,928,1215" style="max-width: 100%; height: auto; font: 10px sans-serif;" xmlns="http://www.w3.org/2000/svg" xmlns:xlink="http://www.w3.org/1999/xlink"><g fill="none" stroke="#555" stroke-opacity="0.4" stroke-width="1.5"><path d="M0,0C116,0,116,-507.5,232,-507.5"/><path d="M0,0C116,0,116,-347.5,232,-347.5"/><path d="M0,0C116,0,116,-90,232,-90"/><path d="M0,0C116,0,116,62.5,232,62.5"/><path d="M0,0C116,0,116,162.5,232,162.5"/><path d="M0,0C116,0,116,265,232,265"/><path d="M0,0C116,0,116,337.5,232,337.5"/><path d="M0,0C116,0,116,402.5,232,402.5"/><path d="M0,0C116,0,116,507.5,232,507.5"/><path d="M232,-507.5C348,-507.5,348,-507.5,464,-507.5"/><path d="M232,-347.5C348,-347.5,348,-487.5,464,-487.5"/><path d="M232,-347.5C348,-347.5,348,-477.5,464,-477.5"/><path d="M232,-347.5C348,-347.5,348,-467.5,464,-467.5"/><path d="M232,-347.5C348,-347.5,348,-457.5,464,-457.5"/><path d="M232,-347.5C348,-347.5,348,-447.5,464,-447.5"/><path d="M232,-347.5C348,-347.5,348,-437.5,464,-437.5"/><path d="M232,-347.5C348,-347.5,348,-427.5,464,-427.5"/><path d="M232,-347.5C348,-347.5,348,-417.5,464,-417.5"/><path d="M232,-347.5C348,-347.5,348,-407.5,464,-407.5"/><path d="M232,-347.5C348,-347.5,348,-397.5,464,-397.5"/><path d="M232,-347.5C348,-347.5,348,-387.5,464,-387.5"/><path d="M232,-347.5C348,-347.5,348,-377.5,464,-377.5"/><path d="M232,-347.5C348,-347.5,348,-367.5,464,-367.5"/><path d="M232,-347.5C348,-347.5,348,-357.5,464,-357.5"/><path d="M232,-347.5C348,-347.5,348,-347.5,464,-347.5"/><path d="M232,-347.5C348,-347.5,348,-337.5,464,-337.5"/><path d="M232,-347.5C348,-347.5,348,-327.5,464,-327.5"/><path d="M232,-347.5C348,-347.5,348,-317.5,464,-317.5"/><path d="M232,-347.5C348,-347.5,348,-307.5,464,-307.5"/><path d="M232,-347.5C348,-347.5,348,-297.5,464,-297.5"/><path d="M232,-347.5C348,-347.5,348,-287.5,464,-287.5"/><path d="M232,-347.5C348,-347.5,348,-277.5,464,-277.5"/><path d="M232,-347.5C348,-347.5,348,-267.5,464,-267.5"/><path d="M232,-347.5C348,-347.5,348,-257.5,464,-257.5"/><path d="M232,-347.5C348,-347.5,348,-247.5,464,-247.5"/><path d="M232,-347.5C348,-347.5,348,-237.5,464,-237.5"/><path d="M232,-347.5C348,-347.5,348,-227.5,464,-227.5"/><path d="M232,-347.5C348,-347.5,348,-217.5,464,-217.5"/><path d="M232,-347.5C348,-347.5,348,-207.5,464,-207.5"/><path d="M232,-90C348,-90,348,-187.5,464,-187.5"/><path d="M232,-90C348,-90,348,-177.5,464,-177.5"/><path d="M232,-90C348,-90,348,-167.5,464,-167.5"/><path d="M232,-90C348,-90,348,-157.5,464,-157.5"/><path d="M232,-90C348,-90,348,-147.5,464,-147.5"/><path d="M232,-90C348,-90,348,-137.5,464,-137.5"/><path d="M232,-90C348,-90,348,-127.5,464,-127.5"/><path d="M232,-90C348,-90,348,-117.5,464,-117.5"/><path d="M232,-90C348,-90,348,-107.5,464,-107.5"/><path d="M232,-90C348,-90,348,-97.5,464,-97.5"/><path d="M232,-90C348,-90,348,-87.5,464,-87.5"/><path d="M232,-90C348,-90,348,-77.5,464,-77.5"/><path d="M232,-90C348,-90,348,-67.5,464,-67.5"/><path d="M232,-90C348,-90,348,-57.5,464,-57.5"/><path d="M232,-90C348,-90,348,-47.5,464,-47.5"/><path d="M232,-90C348,-90,348,-37.5,464,-37.5"/><path d="M232,-90C348,-90,348,-27.5,464,-27.5"/><path d="M232,-90C348,-90,348,-10,464,-10"/><path d="M232,-90C348,-90,348,7.5,464,7.5"/><path d="M232,62.5C348,62.5,348,27.5,464,27.5"/><path d="M232,62.5C348,62.5,348,37.5,464,37.5"/><path d="M232,62.5C348,62.5,348,47.5,464,47.5"/><path d="M232,62.5C348,62.5,348,57.5,464,57.5"/><path d="M232,62.5C348,62.5,348,67.5,464,67.5"/><path d="M232,62.5C348,62.5,348,77.5,464,77.5"/><path d="M232,62.5C348,62.5,348,87.5,464,87.5"/><path d="M232,62.5C348,62.5,348,97.5,464,97.5"/><path d="M232,162.5C348,162.5,348,117.5,464,117.5"/><path d="M232,162.5C348,162.5,348,127.5,464,127.5"/><path d="M232,162.5C348,162.5,348,137.5,464,137.5"/><path d="M232,162.5C348,162.5,348,147.5,464,147.5"/><path d="M232,162.5C348,162.5,348,157.5,464,157.5"/><path d="M232,162.5C348,162.5,348,167.5,464,167.5"/><path d="M232,162.5C348,162.5,348,177.5,464,177.5"/><path d="M232,162.5C348,162.5,348,187.5,464,187.5"/><path d="M232,162.5C348,162.5,348,197.5,464,197.5"/><path d="M232,162.5C348,162.5,348,207.5,464,207.5"/><path d="M232,265C348,265,348,227.5,464,227.5"/><path d="M232,265C348,265,348,262.5,464,262.5"/><path d="M232,265C348,265,348,302.5,464,302.5"/><path d="M232,337.5C348,337.5,348,322.5,464,322.5"/><path d="M232,337.5C348,337.5,348,332.5,464,332.5"/><path d="M232,337.5C348,337.5,348,342.5,464,342.5"/><path d="M232,337.5C348,337.5,348,352.5,464,352.5"/><path d="M232,402.5C348,402.5,348,372.5,464,372.5"/><path d="M232,402.5C348,402.5,348,382.5,464,382.5"/><path d="M232,402.5C348,402.5,348,392.5,464,392.5"/><path d="M232,402.5C348,402.5,348,402.5,464,402.5"/><path d="M232,402.5C348,402.5,348,412.5,464,412.5"/><path d="M232,402.5C348,402.5,348,422.5,464,422.5"/><path d="M232,402.5C348,402.5,348,432.5,464,432.5"/><path d="M232,507.5C348,507.5,348,452.5,464,452.5"/><path d="M232,507.5C348,507.5,348,462.5,464,462.5"/><path d="M232,507.5C348,507.5,348,472.5,464,472.5"/><path d="M232,507.5C348,507.5,348,482.5,464,482.5"/><path d="M232,507.5C348,507.5,348,492.5,464,492.5"/><path d="M232,507.5C348,507.5,348,502.5,464,502.5"/><path d="M232,507.5C348,507.5,348,512.5,464,512.5"/><path d="M232,507.5C348,507.5,348,522.5,464,522.5"/><path d="M232,507.5C348,507.5,348,532.5,464,532.5"/><path d="M232,507.5C348,507.5,348,542.5,464,542.5"/><path d="M232,507.5C348,507.5,348,552.5,464,552.5"/><path d="M232,507.5C348,507.5,348,562.5,464,562.5"/><path d="M464,-457.5C580,-457.5,580,-612.5,696,-612.5"/><path d="M464,-457.5C580,-457.5,580,-602.5,696,-602.5"/><path d="M464,-457.5C580,-457.5,580,-592.5,696,-592.5"/><path d="M464,-457.5C580,-457.5,580,-582.5,696,-582.5"/><path d="M464,-457.5C580,-457.5,580,-572.5,696,-572.5"/><path d="M464,-457.5C580,-457.5,580,-562.5,696,-562.5"/><path d="M464,-457.5C580,-457.5,580,-552.5,696,-552.5"/><path d="M464,-457.5C580,-457.5,580,-542.5,696,-542.5"/><path d="M464,-457.5C580,-457.5,580,-532.5,696,-532.5"/><path d="M464,-457.5C580,-457.5,580,-522.5,696,-522.5"/><path d="M464,-457.5C580,-457.5,580,-512.5,696,-512.5"/><path d="M464,-457.5C580,-457.5,580,-502.5,696,-502.5"/><path d="M464,-457.5C580,-457.5,580,-492.5,696,-492.5"/><path d="M464,-457.5C580,-457.5,580,-482.5,696,-482.5"/><path d="M464,-457.5C580,-457.5,580,-472.5,696,-472.5"/><path d="M464,-457.5C580,-457.5,580,-462.5,696,-462.5"/><path d="M464,-457.5C580,-457.5,580,-452.5,696,-452.5"/><path d="M464,-457.5C580,-457.5,580,-442.5,696,-442.5"/><path d="M464,-457.5C580,-457.5,580,-432.5,696,-432.5"/><path d="M464,-457.5C580,-457.5,580,-422.5,696,-422.5"/><path d="M464,-457.5C580,-457.5,580,-412.5,696,-412.5"/><path d="M464,-457.5C580,-457.5,580,-402.5,696,-402.5"/><path d="M464,-457.5C580,-457.5,580,-392.5,696,-392.5"/><path d="M464,-457.5C580,-457.5,580,-382.5,696,-382.5"/><path d="M464,-457.5C580,-457.5,580,-372.5,696,-372.5"/><path d="M464,-457.5C580,-457.5,580,-362.5,696,-362.5"/><path d="M464,-457.5C580,-457.5,580,-352.5,696,-352.5"/><path d="M464,-457.5C580,-457.5,580,-342.5,696,-342.5"/><path d="M464,-457.5C580,-457.5,580,-332.5,696,-332.5"/><path d="M464,-457.5C580,-457.5,580,-322.5,696,-322.5"/><path d="M464,-457.5C580,-457.5,580,-312.5,696,-312.5"/><path d="M464,-457.5C580,-457.5,580,-302.5,696,-302.5"/><path d="M464,-137.5C580,-137.5,580,-152.5,696,-152.5"/><path d="M464,-137.5C580,-137.5,580,-142.5,696,-142.5"/><path d="M464,-137.5C580,-137.5,580,-132.5,696,-132.5"/><path d="M464,-137.5C580,-137.5,580,-122.5,696,-122.5"/><path d="M464,-27.5C580,-27.5,580,-37.5,696,-37.5"/><path d="M464,-27.5C580,-27.5,580,-27.5,696,-27.5"/><path d="M464,-27.5C580,-27.5,580,-17.5,696,-17.5"/><path d="M464,7.5C580,7.5,580,2.5,696,2.5"/><path d="M464,7.5C580,7.5,580,12.5,696,12.5"/><path d="M464,227.5C580,227.5,580,212.5,696,212.5"/><path d="M464,227.5C580,227.5,580,222.5,696,222.5"/><path d="M464,227.5C580,227.5,580,232.5,696,232.5"/><path d="M464,227.5C580,227.5,580,242.5,696,242.5"/><path d="M464,262.5C580,262.5,580,262.5,696,262.5"/><path d="M464,302.5C580,302.5,580,282.5,696,282.5"/><path d="M464,302.5C580,302.5,580,292.5,696,292.5"/><path d="M464,302.5C580,302.5,580,302.5,696,302.5"/><path d="M464,302.5C580,302.5,580,312.5,696,312.5"/><path d="M464,302.5C580,302.5,580,322.5,696,322.5"/><path d="M464,382.5C580,382.5,580,362.5,696,362.5"/><path d="M464,382.5C580,382.5,580,372.5,696,372.5"/><path d="M464,382.5C580,382.5,580,382.5,696,382.5"/><path d="M464,382.5C580,382.5,580,392.5,696,392.5"/><path d="M464,382.5C580,382.5,580,402.5,696,402.5"/><path d="M464,542.5C580,542.5,580,502.5,696,502.5"/><path d="M464,542.5C580,542.5,580,512.5,696,512.5"/><path d="M464,542.5C580,542.5,580,522.5,696,522.5"/><path d="M464,542.5C580,542.5,580,532.5,696,532.5"/><path d="M464,542.5C580,542.5,580,542.5,696,542.5"/><path d="M464,542.5C580,542.5,580,552.5,696,552.5"/><path d="M464,542.5C580,542.5,580,562.5,696,562.5"/><path d="M464,542.5C580,542.5,580,572.5,696,572.5"/><path d="M464,542.5C580,542.5,580,582.5,696,582.5"/></g><g stroke-linejoin="round" stroke-width="3"><g transform="translate(0,0)"><text dy="0.31em" x="-6" text-anchor="end" stroke="white">HGL's Subjects</text><circle fill="#555" r="2.5"/><text dy="0.31em" x="-6" text-anchor="end">HGL's Subjects</text></g><g transform="translate(232,-507.5)"><text dy="0.31em" x="-6" text-anchor="end" stroke="white">Administrative Boundaries</text><circle fill="#555" r="2.5"/><text dy="0.31em" x="-6" text-anchor="end">Administrative Boundaries</text></g><g transform="translate(232,-347.5)"><text dy="0.31em" x="-6" text-anchor="end" stroke="white">Built Environment</text><circle fill="#555" r="2.5"/><text dy="0.31em" x="-6" text-anchor="end">Built Environment</text></g><g transform="translate(232,-90)"><text dy="0.31em" x="-6" text-anchor="end" stroke="white">Cartography and Boundaries</text><circle fill="#555" r="2.5"/><text dy="0.31em" x="-6" text-anchor="end">Cartography and Boundaries</text></g><g transform="translate(232,62.5)"><text dy="0.31em" x="-6" text-anchor="end" stroke="white">Ecology and Climate</text><circle fill="#555" r="2.5"/><text dy="0.31em" x="-6" text-anchor="end">Ecology and Climate</text></g><g transform="translate(232,162.5)"><text dy="0.31em" x="-6" text-anchor="end" stroke="white">Environmental</text><circle fill="#555" r="2.5"/><text dy="0.31em" x="-6" text-anchor="end">Environmental</text></g><g transform="translate(232,265)"><text dy="0.31em" x="-6" text-anchor="end" stroke="white">Geographic Features</text><circle fill="#555" r="2.5"/><text dy="0.31em" x="-6" text-anchor="end">Geographic Features</text></g><g transform="translate(232,337.5)"><text dy="0.31em" x="-6" text-anchor="end" stroke="white">Natural Resources</text><circle fill="#555" r="2.5"/><text dy="0.31em" x="-6" text-anchor="end">Natural Resources</text></g><g transform="translate(232,402.5)"><text dy="0.31em" x="-6" text-anchor="end" stroke="white">Political Divisions</text><circle fill="#555" r="2.5"/><text dy="0.31em" x="-6" text-anchor="end">Political Divisions</text></g><g transform="translate(232,507.5)"><text dy="0.31em" x="-6" text-anchor="end" stroke="white">Transportation</text><circle fill="#555" r="2.5"/><text dy="0.31em" x="-6" text-anchor="end">Transportation</text></g><g transform="translate(464,-507.5)"><text dy="0.31em" x="6" text-anchor="start" stroke="white">Indian Reservations</text><circle fill="#999" r="2.5"/><text dy="0.31em" x="6" text-anchor="start">Indian Reservations</text></g><g transform="translate(464,-487.5)"><text dy="0.31em" x="6" text-anchor="start" stroke="white">Buildings</text><circle fill="#999" r="2.5"/><text dy="0.31em" x="6" text-anchor="start">Buildings</text></g><g transform="translate(464,-477.5)"><text dy="0.31em" x="6" text-anchor="start" stroke="white">Churches</text><circle fill="#999" r="2.5"/><text dy="0.31em" x="6" text-anchor="start">Churches</text></g><g transform="translate(464,-467.5)"><text dy="0.31em" x="6" text-anchor="start" stroke="white">Commercial buildings</text><circle fill="#999" r="2.5"/><text dy="0.31em" x="6" text-anchor="start">Commercial buildings</text></g><g transform="translate(464,-457.5)"><text dy="0.31em" x="-6" text-anchor="end" stroke="white">Demographics and Utilities</text><circle fill="#555" r="2.5"/><text dy="0.31em" x="-6" text-anchor="end">Demographics and Utilities</text></g><g transform="translate(464,-447.5)"><text dy="0.31em" x="6" text-anchor="start" stroke="white">Factories</text><circle fill="#999" r="2.5"/><text dy="0.31em" x="6" text-anchor="start">Factories</text></g><g transform="translate(464,-437.5)"><text dy="0.31em" x="6" text-anchor="start" stroke="white">Fire stations</text><circle fill="#999" r="2.5"/><text dy="0.31em" x="6" text-anchor="start">Fire stations</text></g><g transform="translate(464,-427.5)"><text dy="0.31em" x="6" text-anchor="start" stroke="white">Golf courses</text><circle fill="#999" r="2.5"/><text dy="0.31em" x="6" text-anchor="start">Golf courses</text></g><g transform="translate(464,-417.5)"><text dy="0.31em" x="6" text-anchor="start" stroke="white">Hospitals</text><circle fill="#999" r="2.5"/><text dy="0.31em" x="6" text-anchor="start">Hospitals</text></g><g transform="translate(464,-407.5)"><text dy="0.31em" x="6" text-anchor="start" stroke="white">Libraries</text><circle fill="#999" r="2.5"/><text dy="0.31em" x="6" text-anchor="start">Libraries</text></g><g transform="translate(464,-397.5)"><text dy="0.31em" x="6" text-anchor="start" stroke="white">Minimum</text><circle fill="#999" r="2.5"/><text dy="0.31em" x="6" text-anchor="start">Minimum</text></g><g transform="translate(464,-387.5)"><text dy="0.31em" x="6" text-anchor="start" stroke="white">Not</text><circle fill="#999" r="2.5"/><text dy="0.31em" x="6" text-anchor="start">Not</text></g><g transform="translate(464,-377.5)"><text dy="0.31em" x="6" text-anchor="start" stroke="white">Or</text><circle fill="#999" r="2.5"/><text dy="0.31em" x="6" text-anchor="start">Or</text></g><g transform="translate(464,-367.5)"><text dy="0.31em" x="6" text-anchor="start" stroke="white">Parks</text><circle fill="#999" r="2.5"/><text dy="0.31em" x="6" text-anchor="start">Parks</text></g><g transform="translate(464,-357.5)"><text dy="0.31em" x="6" text-anchor="start" stroke="white">Playgrounds</text><circle fill="#999" r="2.5"/><text dy="0.31em" x="6" text-anchor="start">Playgrounds</text></g><g transform="translate(464,-347.5)"><text dy="0.31em" x="6" text-anchor="start" stroke="white">Police stations</text><circle fill="#999" r="2.5"/><text dy="0.31em" x="6" text-anchor="start">Police stations</text></g><g transform="translate(464,-337.5)"><text dy="0.31em" x="6" text-anchor="start" stroke="white">Power substations</text><circle fill="#999" r="2.5"/><text dy="0.31em" x="6" text-anchor="start">Power substations</text></g><g transform="translate(464,-327.5)"><text dy="0.31em" x="6" text-anchor="start" stroke="white">Prisons</text><circle fill="#999" r="2.5"/><text dy="0.31em" x="6" text-anchor="start">Prisons</text></g><g transform="translate(464,-317.5)"><text dy="0.31em" x="6" text-anchor="start" stroke="white">Query</text><circle fill="#999" r="2.5"/><text dy="0.31em" x="6" text-anchor="start">Query</text></g><g transform="translate(464,-307.5)"><text dy="0.31em" x="6" text-anchor="start" stroke="white">Range</text><circle fill="#999" r="2.5"/><text dy="0.31em" x="6" text-anchor="start">Range</text></g><g transform="translate(464,-297.5)"><text dy="0.31em" x="6" text-anchor="start" stroke="white">Recreation centers</text><circle fill="#999" r="2.5"/><text dy="0.31em" x="6" text-anchor="start">Recreation centers</text></g><g transform="translate(464,-287.5)"><text dy="0.31em" x="6" text-anchor="start" stroke="white">Residential buildings</text><circle fill="#999" r="2.5"/><text dy="0.31em" x="6" text-anchor="start">Residential buildings</text></g><g transform="translate(464,-277.5)"><text dy="0.31em" x="6" text-anchor="start" stroke="white">Schools</text><circle fill="#999" r="2.5"/><text dy="0.31em" x="6" text-anchor="start">Schools</text></g><g transform="translate(464,-267.5)"><text dy="0.31em" x="6" text-anchor="start" stroke="white">Shopping centers</text><circle fill="#999" r="2.5"/><text dy="0.31em" x="6" text-anchor="start">Shopping centers</text></g><g transform="translate(464,-257.5)"><text dy="0.31em" x="6" text-anchor="start" stroke="white">Stadiums</text><circle fill="#999" r="2.5"/><text dy="0.31em" x="6" text-anchor="start">Stadiums</text></g><g transform="translate(464,-247.5)"><text dy="0.31em" x="6" text-anchor="start" stroke="white">StringUtil</text><circle fill="#999" r="2.5"/><text dy="0.31em" x="6" text-anchor="start">StringUtil</text></g><g transform="translate(464,-237.5)"><text dy="0.31em" x="6" text-anchor="start" stroke="white">Sum</text><circle fill="#999" r="2.5"/><text dy="0.31em" x="6" text-anchor="start">Sum</text></g><g transform="translate(464,-227.5)"><text dy="0.31em" x="6" text-anchor="start" stroke="white">Variable</text><circle fill="#999" r="2.5"/><text dy="0.31em" x="6" text-anchor="start">Variable</text></g><g transform="translate(464,-217.5)"><text dy="0.31em" x="6" text-anchor="start" stroke="white">Variance</text><circle fill="#999" r="2.5"/><text dy="0.31em" x="6" text-anchor="start">Variance</text></g><g transform="translate(464,-207.5)"><text dy="0.31em" x="6" text-anchor="start" stroke="white">Xor</text><circle fill="#999" r="2.5"/><text dy="0.31em" x="6" text-anchor="start">Xor</text></g><g transform="translate(464,-187.5)"><text dy="0.31em" x="6" text-anchor="start" stroke="white">Atlases</text><circle fill="#999" r="2.5"/><text dy="0.31em" x="6" text-anchor="start">Atlases</text></g><g transform="translate(464,-177.5)"><text dy="0.31em" x="6" text-anchor="start" stroke="white">Burial Sites</text><circle fill="#999" r="2.5"/><text dy="0.31em" x="6" text-anchor="start">Burial Sites</text></g><g transform="translate(464,-167.5)"><text dy="0.31em" x="6" text-anchor="start" stroke="white">Cemeteries</text><circle fill="#999" r="2.5"/><text dy="0.31em" x="6" text-anchor="start">Cemeteries</text></g><g transform="translate(464,-157.5)"><text dy="0.31em" x="6" text-anchor="start" stroke="white">Churches and Religious Buildings</text><circle fill="#999" r="2.5"/><text dy="0.31em" x="6" text-anchor="start">Churches and Religious Buildings</text></g><g transform="translate(464,-147.5)"><text dy="0.31em" x="6" text-anchor="start" stroke="white">Commercial Zones</text><circle fill="#999" r="2.5"/><text dy="0.31em" x="6" text-anchor="start">Commercial Zones</text></g><g transform="translate(464,-137.5)"><text dy="0.31em" x="-6" text-anchor="end" stroke="white">Culture and Heritage Sites</text><circle fill="#555" r="2.5"/><text dy="0.31em" x="-6" text-anchor="end">Culture and Heritage Sites</text></g><g transform="translate(464,-127.5)"><text dy="0.31em" x="6" text-anchor="start" stroke="white">Economic Zoning</text><circle fill="#999" r="2.5"/><text dy="0.31em" x="6" text-anchor="start">Economic Zoning</text></g><g transform="translate(464,-117.5)"><text dy="0.31em" x="6" text-anchor="start" stroke="white">Geographic Information Systems (GIS)</text><circle fill="#999" r="2.5"/><text dy="0.31em" x="6" text-anchor="start">Geographic Information Systems (GIS)</text></g><g transform="translate(464,-107.5)"><text dy="0.31em" x="6" text-anchor="start" stroke="white">Historic Districts</text><circle fill="#999" r="2.5"/><text dy="0.31em" x="6" text-anchor="start">Historic Districts</text></g><g transform="translate(464,-97.5)"><text dy="0.31em" x="6" text-anchor="start" stroke="white">Index Maps</text><circle fill="#999" r="2.5"/><text dy="0.31em" x="6" text-anchor="start">Index Maps</text></g><g transform="translate(464,-87.5)"><text dy="0.31em" x="6" text-anchor="start" stroke="white">International Boundaries</text><circle fill="#999" r="2.5"/><text dy="0.31em" x="6" text-anchor="start">International Boundaries</text></g><g transform="translate(464,-77.5)"><text dy="0.31em" x="6" text-anchor="start" stroke="white">Manuscript</text><circle fill="#999" r="2.5"/><text dy="0.31em" x="6" text-anchor="start">Manuscript</text></g><g transform="translate(464,-67.5)"><text dy="0.31em" x="6" text-anchor="start" stroke="white">Maps</text><circle fill="#999" r="2.5"/><text dy="0.31em" x="6" text-anchor="start">Maps</text></g><g transform="translate(464,-57.5)"><text dy="0.31em" x="6" text-anchor="start" stroke="white">Maps and Atlases</text><circle fill="#999" r="2.5"/><text dy="0.31em" x="6" text-anchor="start">Maps and Atlases</text></g><g transform="translate(464,-47.5)"><text dy="0.31em" x="6" text-anchor="start" stroke="white">National Boundaries</text><circle fill="#999" r="2.5"/><text dy="0.31em" x="6" text-anchor="start">National Boundaries</text></g><g transform="translate(464,-37.5)"><text dy="0.31em" x="6" text-anchor="start" stroke="white">Residential Zones</text><circle fill="#999" r="2.5"/><text dy="0.31em" x="6" text-anchor="start">Residential Zones</text></g><g transform="translate(464,-27.5)"><text dy="0.31em" x="-6" text-anchor="end" stroke="white">Roads and Walkways</text><circle fill="#555" r="2.5"/><text dy="0.31em" x="-6" text-anchor="end">Roads and Walkways</text></g><g transform="translate(464,-10)"><text dy="0.31em" x="6" text-anchor="start" stroke="white">Topographic Maps</text><circle fill="#999" r="2.5"/><text dy="0.31em" x="6" text-anchor="start">Topographic Maps</text></g><g transform="translate(464,7.5)"><text dy="0.31em" x="-6" text-anchor="end" stroke="white">Voting and Polling</text><circle fill="#555" r="2.5"/><text dy="0.31em" x="-6" text-anchor="end">Voting and Polling</text></g><g transform="translate(464,27.5)"><text dy="0.31em" x="6" text-anchor="start" stroke="white">Climate Zones</text><circle fill="#999" r="2.5"/><text dy="0.31em" x="6" text-anchor="start">Climate Zones</text></g><g transform="translate(464,37.5)"><text dy="0.31em" x="6" text-anchor="start" stroke="white">Cloudiness</text><circle fill="#999" r="2.5"/><text dy="0.31em" x="6" text-anchor="start">Cloudiness</text></g><g transform="translate(464,47.5)"><text dy="0.31em" x="6" text-anchor="start" stroke="white">Coastal Ecology</text><circle fill="#999" r="2.5"/><text dy="0.31em" x="6" text-anchor="start">Coastal Ecology</text></g><g transform="translate(464,57.5)"><text dy="0.31em" x="6" text-anchor="start" stroke="white">Habitats</text><circle fill="#999" r="2.5"/><text dy="0.31em" x="6" text-anchor="start">Habitats</text></g><g transform="translate(464,67.5)"><text dy="0.31em" x="6" text-anchor="start" stroke="white">Marine Ecological Regions</text><circle fill="#999" r="2.5"/><text dy="0.31em" x="6" text-anchor="start">Marine Ecological Regions</text></g><g transform="translate(464,77.5)"><text dy="0.31em" x="6" text-anchor="start" stroke="white">Precipitation</text><circle fill="#999" r="2.5"/><text dy="0.31em" x="6" text-anchor="start">Precipitation</text></g><g transform="translate(464,87.5)"><text dy="0.31em" x="6" text-anchor="start" stroke="white">Temperature</text><circle fill="#999" r="2.5"/><text dy="0.31em" x="6" text-anchor="start">Temperature</text></g><g transform="translate(464,97.5)"><text dy="0.31em" x="6" text-anchor="start" stroke="white">Watershed Ecology</text><circle fill="#999" r="2.5"/><text dy="0.31em" x="6" text-anchor="start">Watershed Ecology</text></g><g transform="translate(464,117.5)"><text dy="0.31em" x="6" text-anchor="start" stroke="white">Climate data</text><circle fill="#999" r="2.5"/><text dy="0.31em" x="6" text-anchor="start">Climate data</text></g><g transform="translate(464,127.5)"><text dy="0.31em" x="6" text-anchor="start" stroke="white">Coastal ecology</text><circle fill="#999" r="2.5"/><text dy="0.31em" x="6" text-anchor="start">Coastal ecology</text></g><g transform="translate(464,137.5)"><text dy="0.31em" x="6" text-anchor="start" stroke="white">Conservation zones</text><circle fill="#999" r="2.5"/><text dy="0.31em" x="6" text-anchor="start">Conservation zones</text></g><g transform="translate(464,147.5)"><text dy="0.31em" x="6" text-anchor="start" stroke="white">Ecological regions</text><circle fill="#999" r="2.5"/><text dy="0.31em" x="6" text-anchor="start">Ecological regions</text></g><g transform="translate(464,157.5)"><text dy="0.31em" x="6" text-anchor="start" stroke="white">Environmental zoning</text><circle fill="#999" r="2.5"/><text dy="0.31em" x="6" text-anchor="start">Environmental zoning</text></g><g transform="translate(464,167.5)"><text dy="0.31em" x="6" text-anchor="start" stroke="white">Hazardous waste facilities</text><circle fill="#999" r="2.5"/><text dy="0.31em" x="6" text-anchor="start">Hazardous waste facilities</text></g><g transform="translate(464,177.5)"><text dy="0.31em" x="6" text-anchor="start" stroke="white">Marine ecological regions</text><circle fill="#999" r="2.5"/><text dy="0.31em" x="6" text-anchor="start">Marine ecological regions</text></g><g transform="translate(464,187.5)"><text dy="0.31em" x="6" text-anchor="start" stroke="white">Natural hazards</text><circle fill="#999" r="2.5"/><text dy="0.31em" x="6" text-anchor="start">Natural hazards</text></g><g transform="translate(464,197.5)"><text dy="0.31em" x="6" text-anchor="start" stroke="white">Protected areas</text><circle fill="#999" r="2.5"/><text dy="0.31em" x="6" text-anchor="start">Protected areas</text></g><g transform="translate(464,207.5)"><text dy="0.31em" x="6" text-anchor="start" stroke="white">Wildlife corridors</text><circle fill="#999" r="2.5"/><text dy="0.31em" x="6" text-anchor="start">Wildlife corridors</text></g><g transform="translate(464,227.5)"><text dy="0.31em" x="-6" text-anchor="end" stroke="white">Landforms</text><circle fill="#555" r="2.5"/><text dy="0.31em" x="-6" text-anchor="end">Landforms</text></g><g transform="translate(464,262.5)"><text dy="0.31em" x="-6" text-anchor="end" stroke="white">Vegetation and Land Use</text><circle fill="#555" r="2.5"/><text dy="0.31em" x="-6" text-anchor="end">Vegetation and Land Use</text></g><g transform="translate(464,302.5)"><text dy="0.31em" x="-6" text-anchor="end" stroke="white">Water Bodies</text><circle fill="#555" r="2.5"/><text dy="0.31em" x="-6" text-anchor="end">Water Bodies</text></g><g transform="translate(464,322.5)"><text dy="0.31em" x="6" text-anchor="start" stroke="white">Fisheries</text><circle fill="#999" r="2.5"/><text dy="0.31em" x="6" text-anchor="start">Fisheries</text></g><g transform="translate(464,332.5)"><text dy="0.31em" x="6" text-anchor="start" stroke="white">Mines and Mineral Resources</text><circle fill="#999" r="2.5"/><text dy="0.31em" x="6" text-anchor="start">Mines and Mineral Resources</text></g><g transform="translate(464,342.5)"><text dy="0.31em" x="6" text-anchor="start" stroke="white">Oil Fields</text><circle fill="#999" r="2.5"/><text dy="0.31em" x="6" text-anchor="start">Oil Fields</text></g><g transform="translate(464,352.5)"><text dy="0.31em" x="6" text-anchor="start" stroke="white">Peatlands</text><circle fill="#999" r="2.5"/><text dy="0.31em" x="6" text-anchor="start">Peatlands</text></g><g transform="translate(464,372.5)"><text dy="0.31em" x="6" text-anchor="start" stroke="white">Conservation Areas</text><circle fill="#999" r="2.5"/><text dy="0.31em" x="6" text-anchor="start">Conservation Areas</text></g><g transform="translate(464,382.5)"><text dy="0.31em" x="-6" text-anchor="end" stroke="white">Countries</text><circle fill="#555" r="2.5"/><text dy="0.31em" x="-6" text-anchor="end">Countries</text></g><g transform="translate(464,392.5)"><text dy="0.31em" x="6" text-anchor="start" stroke="white">Election Districts</text><circle fill="#999" r="2.5"/><text dy="0.31em" x="6" text-anchor="start">Election Districts</text></g><g transform="translate(464,402.5)"><text dy="0.31em" x="6" text-anchor="start" stroke="white">Postal Codes</text><circle fill="#999" r="2.5"/><text dy="0.31em" x="6" text-anchor="start">Postal Codes</text></g><g transform="translate(464,412.5)"><text dy="0.31em" x="6" text-anchor="start" stroke="white">Protected Lands</text><circle fill="#999" r="2.5"/><text dy="0.31em" x="6" text-anchor="start">Protected Lands</text></g><g transform="translate(464,422.5)"><text dy="0.31em" x="6" text-anchor="start" stroke="white">Wildlife Sanctuaries</text><circle fill="#999" r="2.5"/><text dy="0.31em" x="6" text-anchor="start">Wildlife Sanctuaries</text></g><g transform="translate(464,432.5)"><text dy="0.31em" x="6" text-anchor="start" stroke="white">ZIP Codes</text><circle fill="#999" r="2.5"/><text dy="0.31em" x="6" text-anchor="start">ZIP Codes</text></g><g transform="translate(464,452.5)"><text dy="0.31em" x="6" text-anchor="start" stroke="white">Airports</text><circle fill="#999" r="2.5"/><text dy="0.31em" x="6" text-anchor="start">Airports</text></g><g transform="translate(464,462.5)"><text dy="0.31em" x="6" text-anchor="start" stroke="white">Bridges</text><circle fill="#999" r="2.5"/><text dy="0.31em" x="6" text-anchor="start">Bridges</text></g><g transform="translate(464,472.5)"><text dy="0.31em" x="6" text-anchor="start" stroke="white">Express Highways</text><circle fill="#999" r="2.5"/><text dy="0.31em" x="6" text-anchor="start">Express Highways</text></g><g transform="translate(464,482.5)"><text dy="0.31em" x="6" text-anchor="start" stroke="white">Ports and Harbors</text><circle fill="#999" r="2.5"/><text dy="0.31em" x="6" text-anchor="start">Ports and Harbors</text></g><g transform="translate(464,492.5)"><text dy="0.31em" x="6" text-anchor="start" stroke="white">Railroad Stations</text><circle fill="#999" r="2.5"/><text dy="0.31em" x="6" text-anchor="start">Railroad Stations</text></g><g transform="translate(464,502.5)"><text dy="0.31em" x="6" text-anchor="start" stroke="white">Railroads</text><circle fill="#999" r="2.5"/><text dy="0.31em" x="6" text-anchor="start">Railroads</text></g><g transform="translate(464,512.5)"><text dy="0.31em" x="6" text-anchor="start" stroke="white">Roads and Highways</text><circle fill="#999" r="2.5"/><text dy="0.31em" x="6" text-anchor="start">Roads and Highways</text></g><g transform="translate(464,522.5)"><text dy="0.31em" x="6" text-anchor="start" stroke="white">Streets</text><circle fill="#999" r="2.5"/><text dy="0.31em" x="6" text-anchor="start">Streets</text></g><g transform="translate(464,532.5)"><text dy="0.31em" x="6" text-anchor="start" stroke="white">Tunnels</text><circle fill="#999" r="2.5"/><text dy="0.31em" x="6" text-anchor="start">Tunnels</text></g><g transform="translate(464,542.5)"><text dy="0.31em" x="-6" text-anchor="end" stroke="white">Utilities and Services</text><circle fill="#555" r="2.5"/><text dy="0.31em" x="-6" text-anchor="end">Utilities and Services</text></g><g transform="translate(464,552.5)"><text dy="0.31em" x="6" text-anchor="start" stroke="white">Water Supply</text><circle fill="#999" r="2.5"/><text dy="0.31em" x="6" text-anchor="start">Water Supply</text></g><g transform="translate(464,562.5)"><text dy="0.31em" x="6" text-anchor="start" stroke="white">Wharves</text><circle fill="#999" r="2.5"/><text dy="0.31em" x="6" text-anchor="start">Wharves</text></g><g transform="translate(696,-612.5)"><text dy="0.31em" x="6" text-anchor="start" stroke="white">Business Districts</text><circle fill="#999" r="2.5"/><text dy="0.31em" x="6" text-anchor="start">Business Districts</text></g><g transform="translate(696,-602.5)"><text dy="0.31em" x="6" text-anchor="start" stroke="white">Census data</text><circle fill="#999" r="2.5"/><text dy="0.31em" x="6" text-anchor="start">Census data</text></g><g transform="translate(696,-592.5)"><text dy="0.31em" x="6" text-anchor="start" stroke="white">Churches</text><circle fill="#999" r="2.5"/><text dy="0.31em" x="6" text-anchor="start">Churches</text></g><g transform="translate(696,-582.5)"><text dy="0.31em" x="6" text-anchor="start" stroke="white">Community centers</text><circle fill="#999" r="2.5"/><text dy="0.31em" x="6" text-anchor="start">Community centers</text></g><g transform="translate(696,-572.5)"><text dy="0.31em" x="6" text-anchor="start" stroke="white">Community gardens</text><circle fill="#999" r="2.5"/><text dy="0.31em" x="6" text-anchor="start">Community gardens</text></g><g transform="translate(696,-562.5)"><text dy="0.31em" x="6" text-anchor="start" stroke="white">Demography</text><circle fill="#999" r="2.5"/><text dy="0.31em" x="6" text-anchor="start">Demography</text></g><g transform="translate(696,-552.5)"><text dy="0.31em" x="6" text-anchor="start" stroke="white">Electric lines</text><circle fill="#999" r="2.5"/><text dy="0.31em" x="6" text-anchor="start">Electric lines</text></g><g transform="translate(696,-542.5)"><text dy="0.31em" x="6" text-anchor="start" stroke="white">Factories</text><circle fill="#999" r="2.5"/><text dy="0.31em" x="6" text-anchor="start">Factories</text></g><g transform="translate(696,-532.5)"><text dy="0.31em" x="6" text-anchor="start" stroke="white">Gas lines</text><circle fill="#999" r="2.5"/><text dy="0.31em" x="6" text-anchor="start">Gas lines</text></g><g transform="translate(696,-522.5)"><text dy="0.31em" x="6" text-anchor="start" stroke="white">Health facilities</text><circle fill="#999" r="2.5"/><text dy="0.31em" x="6" text-anchor="start">Health facilities</text></g><g transform="translate(696,-512.5)"><text dy="0.31em" x="6" text-anchor="start" stroke="white">Historical markers</text><circle fill="#999" r="2.5"/><text dy="0.31em" x="6" text-anchor="start">Historical markers</text></g><g transform="translate(696,-502.5)"><text dy="0.31em" x="6" text-anchor="start" stroke="white">Industrial Parks</text><circle fill="#999" r="2.5"/><text dy="0.31em" x="6" text-anchor="start">Industrial Parks</text></g><g transform="translate(696,-492.5)"><text dy="0.31em" x="6" text-anchor="start" stroke="white">Internet connectivity</text><circle fill="#999" r="2.5"/><text dy="0.31em" x="6" text-anchor="start">Internet connectivity</text></g><g transform="translate(696,-482.5)"><text dy="0.31em" x="6" text-anchor="start" stroke="white">Libraries</text><circle fill="#999" r="2.5"/><text dy="0.31em" x="6" text-anchor="start">Libraries</text></g><g transform="translate(696,-472.5)"><text dy="0.31em" x="6" text-anchor="start" stroke="white">Museums</text><circle fill="#999" r="2.5"/><text dy="0.31em" x="6" text-anchor="start">Museums</text></g><g transform="translate(696,-462.5)"><text dy="0.31em" x="6" text-anchor="start" stroke="white">Population density</text><circle fill="#999" r="2.5"/><text dy="0.31em" x="6" text-anchor="start">Population density</text></g><g transform="translate(696,-452.5)"><text dy="0.31em" x="6" text-anchor="start" stroke="white">Power-plants</text><circle fill="#999" r="2.5"/><text dy="0.31em" x="6" text-anchor="start">Power-plants</text></g><g transform="translate(696,-442.5)"><text dy="0.31em" x="6" text-anchor="start" stroke="white">Public shelters</text><circle fill="#999" r="2.5"/><text dy="0.31em" x="6" text-anchor="start">Public shelters</text></g><g transform="translate(696,-432.5)"><text dy="0.31em" x="6" text-anchor="start" stroke="white">Recreation areas</text><circle fill="#999" r="2.5"/><text dy="0.31em" x="6" text-anchor="start">Recreation areas</text></g><g transform="translate(696,-422.5)"><text dy="0.31em" x="6" text-anchor="start" stroke="white">Recycling centers</text><circle fill="#999" r="2.5"/><text dy="0.31em" x="6" text-anchor="start">Recycling centers</text></g><g transform="translate(696,-412.5)"><text dy="0.31em" x="6" text-anchor="start" stroke="white">Reservoirs</text><circle fill="#999" r="2.5"/><text dy="0.31em" x="6" text-anchor="start">Reservoirs</text></g><g transform="translate(696,-402.5)"><text dy="0.31em" x="6" text-anchor="start" stroke="white">Schools</text><circle fill="#999" r="2.5"/><text dy="0.31em" x="6" text-anchor="start">Schools</text></g><g transform="translate(696,-392.5)"><text dy="0.31em" x="6" text-anchor="start" stroke="white">Senior centers</text><circle fill="#999" r="2.5"/><text dy="0.31em" x="6" text-anchor="start">Senior centers</text></g><g transform="translate(696,-382.5)"><text dy="0.31em" x="6" text-anchor="start" stroke="white">Sewerage</text><circle fill="#999" r="2.5"/><text dy="0.31em" x="6" text-anchor="start">Sewerage</text></g><g transform="translate(696,-372.5)"><text dy="0.31em" x="6" text-anchor="start" stroke="white">Shopping Centers</text><circle fill="#999" r="2.5"/><text dy="0.31em" x="6" text-anchor="start">Shopping Centers</text></g><g transform="translate(696,-362.5)"><text dy="0.31em" x="6" text-anchor="start" stroke="white">Sports facilities</text><circle fill="#999" r="2.5"/><text dy="0.31em" x="6" text-anchor="start">Sports facilities</text></g><g transform="translate(696,-352.5)"><text dy="0.31em" x="6" text-anchor="start" stroke="white">Storage facilities</text><circle fill="#999" r="2.5"/><text dy="0.31em" x="6" text-anchor="start">Storage facilities</text></g><g transform="translate(696,-342.5)"><text dy="0.31em" x="6" text-anchor="start" stroke="white">Telecommunication</text><circle fill="#999" r="2.5"/><text dy="0.31em" x="6" text-anchor="start">Telecommunication</text></g><g transform="translate(696,-332.5)"><text dy="0.31em" x="6" text-anchor="start" stroke="white">Waste management</text><circle fill="#999" r="2.5"/><text dy="0.31em" x="6" text-anchor="start">Waste management</text></g><g transform="translate(696,-322.5)"><text dy="0.31em" x="6" text-anchor="start" stroke="white">Water supply</text><circle fill="#999" r="2.5"/><text dy="0.31em" x="6" text-anchor="start">Water supply</text></g><g transform="translate(696,-312.5)"><text dy="0.31em" x="6" text-anchor="start" stroke="white">Water treatment facilities</text><circle fill="#999" r="2.5"/><text dy="0.31em" x="6" text-anchor="start">Water treatment facilities</text></g><g transform="translate(696,-302.5)"><text dy="0.31em" x="6" text-anchor="start" stroke="white">Youth centers</text><circle fill="#999" r="2.5"/><text dy="0.31em" x="6" text-anchor="start">Youth centers</text></g><g transform="translate(696,-152.5)"><text dy="0.31em" x="6" text-anchor="start" stroke="white">Archaeological Excavations</text><circle fill="#999" r="2.5"/><text dy="0.31em" x="6" text-anchor="start">Archaeological Excavations</text></g><g transform="translate(696,-142.5)"><text dy="0.31em" x="6" text-anchor="start" stroke="white">Cemeteries and Burial Sites</text><circle fill="#999" r="2.5"/><text dy="0.31em" x="6" text-anchor="start">Cemeteries and Burial Sites</text></g><g transform="translate(696,-132.5)"><text dy="0.31em" x="6" text-anchor="start" stroke="white">Historic District</text><circle fill="#999" r="2.5"/><text dy="0.31em" x="6" text-anchor="start">Historic District</text></g><g transform="translate(696,-122.5)"><text dy="0.31em" x="6" text-anchor="start" stroke="white">Memorials and Monuments</text><circle fill="#999" r="2.5"/><text dy="0.31em" x="6" text-anchor="start">Memorials and Monuments</text></g><g transform="translate(696,-37.5)"><text dy="0.31em" x="6" text-anchor="start" stroke="white">Crosswalks</text><circle fill="#999" r="2.5"/><text dy="0.31em" x="6" text-anchor="start">Crosswalks</text></g><g transform="translate(696,-27.5)"><text dy="0.31em" x="6" text-anchor="start" stroke="white">Ramps</text><circle fill="#999" r="2.5"/><text dy="0.31em" x="6" text-anchor="start">Ramps</text></g><g transform="translate(696,-17.5)"><text dy="0.31em" x="6" text-anchor="start" stroke="white">Sidewalks</text><circle fill="#999" r="2.5"/><text dy="0.31em" x="6" text-anchor="start">Sidewalks</text></g><g transform="translate(696,2.5)"><text dy="0.31em" x="6" text-anchor="start" stroke="white">Census Districts</text><circle fill="#999" r="2.5"/><text dy="0.31em" x="6" text-anchor="start">Census Districts</text></g><g transform="translate(696,12.5)"><text dy="0.31em" x="6" text-anchor="start" stroke="white">Political Divisions</text><circle fill="#999" r="2.5"/><text dy="0.31em" x="6" text-anchor="start">Political Divisions</text></g><g transform="translate(696,212.5)"><text dy="0.31em" x="6" text-anchor="start" stroke="white">Cliffs</text><circle fill="#999" r="2.5"/><text dy="0.31em" x="6" text-anchor="start">Cliffs</text></g><g transform="translate(696,222.5)"><text dy="0.31em" x="6" text-anchor="start" stroke="white">Hills</text><circle fill="#999" r="2.5"/><text dy="0.31em" x="6" text-anchor="start">Hills</text></g><g transform="translate(696,232.5)"><text dy="0.31em" x="6" text-anchor="start" stroke="white">Mountains</text><circle fill="#999" r="2.5"/><text dy="0.31em" x="6" text-anchor="start">Mountains</text></g><g transform="translate(696,242.5)"><text dy="0.31em" x="6" text-anchor="start" stroke="white">Valleys</text><circle fill="#999" r="2.5"/><text dy="0.31em" x="6" text-anchor="start">Valleys</text></g><g transform="translate(696,262.5)"><text dy="0.31em" x="6" text-anchor="start" stroke="white">Orchards</text><circle fill="#999" r="2.5"/><text dy="0.31em" x="6" text-anchor="start">Orchards</text></g><g transform="translate(696,282.5)"><text dy="0.31em" x="6" text-anchor="start" stroke="white">Coastline</text><circle fill="#999" r="2.5"/><text dy="0.31em" x="6" text-anchor="start">Coastline</text></g><g transform="translate(696,292.5)"><text dy="0.31em" x="6" text-anchor="start" stroke="white">Islands</text><circle fill="#999" r="2.5"/><text dy="0.31em" x="6" text-anchor="start">Islands</text></g><g transform="translate(696,302.5)"><text dy="0.31em" x="6" text-anchor="start" stroke="white">Lakes</text><circle fill="#999" r="2.5"/><text dy="0.31em" x="6" text-anchor="start">Lakes</text></g><g transform="translate(696,312.5)"><text dy="0.31em" x="6" text-anchor="start" stroke="white">Oceans</text><circle fill="#999" r="2.5"/><text dy="0.31em" x="6" text-anchor="start">Oceans</text></g><g transform="translate(696,322.5)"><text dy="0.31em" x="6" text-anchor="start" stroke="white">Rivers</text><circle fill="#999" r="2.5"/><text dy="0.31em" x="6" text-anchor="start">Rivers</text></g><g transform="translate(696,362.5)"><text dy="0.31em" x="6" text-anchor="start" stroke="white">Census Districts</text><circle fill="#999" r="2.5"/><text dy="0.31em" x="6" text-anchor="start">Census Districts</text></g><g transform="translate(696,372.5)"><text dy="0.31em" x="6" text-anchor="start" stroke="white">Counties</text><circle fill="#999" r="2.5"/><text dy="0.31em" x="6" text-anchor="start">Counties</text></g><g transform="translate(696,382.5)"><text dy="0.31em" x="6" text-anchor="start" stroke="white">Metropolitan Areas</text><circle fill="#999" r="2.5"/><text dy="0.31em" x="6" text-anchor="start">Metropolitan Areas</text></g><g transform="translate(696,392.5)"><text dy="0.31em" x="6" text-anchor="start" stroke="white">Municipalities</text><circle fill="#999" r="2.5"/><text dy="0.31em" x="6" text-anchor="start">Municipalities</text></g><g transform="translate(696,402.5)"><text dy="0.31em" x="6" text-anchor="start" stroke="white">States</text><circle fill="#999" r="2.5"/><text dy="0.31em" x="6" text-anchor="start">States</text></g><g transform="translate(696,502.5)"><text dy="0.31em" x="6" text-anchor="start" stroke="white">Electric Lines</text><circle fill="#999" r="2.5"/><text dy="0.31em" x="6" text-anchor="start">Electric Lines</text></g><g transform="translate(696,512.5)"><text dy="0.31em" x="6" text-anchor="start" stroke="white">Gas Lines</text><circle fill="#999" r="2.5"/><text dy="0.31em" x="6" text-anchor="start">Gas Lines</text></g><g transform="translate(696,522.5)"><text dy="0.31em" x="6" text-anchor="start" stroke="white">Libraries</text><circle fill="#999" r="2.5"/><text dy="0.31em" x="6" text-anchor="start">Libraries</text></g><g transform="translate(696,532.5)"><text dy="0.31em" x="6" text-anchor="start" stroke="white">Parks</text><circle fill="#999" r="2.5"/><text dy="0.31em" x="6" text-anchor="start">Parks</text></g><g transform="translate(696,542.5)"><text dy="0.31em" x="6" text-anchor="start" stroke="white">Pipelines</text><circle fill="#999" r="2.5"/><text dy="0.31em" x="6" text-anchor="start">Pipelines</text></g><g transform="translate(696,552.5)"><text dy="0.31em" x="6" text-anchor="start" stroke="white">Sewerage</text><circle fill="#999" r="2.5"/><text dy="0.31em" x="6" text-anchor="start">Sewerage</text></g><g transform="translate(696,562.5)"><text dy="0.31em" x="6" text-anchor="start" stroke="white">Sports Facilities</text><circle fill="#999" r="2.5"/><text dy="0.31em" x="6" text-anchor="start">Sports Facilities</text></g><g transform="translate(696,572.5)"><text dy="0.31em" x="6" text-anchor="start" stroke="white">Telecommunication</text><circle fill="#999" r="2.5"/><text dy="0.31em" x="6" text-anchor="start">Telecommunication</text></g><g transform="translate(696,582.5)"><text dy="0.31em" x="6" text-anchor="start" stroke="white">Water Supply</text><circle fill="#999" r="2.5"/><text dy="0.31em" x="6" text-anchor="start">Water Supply</text></g></g></svg>